<svg id="Layer_1" data-name="Layer 1" xmlns="http://www.w3.org/2000/svg" viewBox="0 0 208 36"><title>Logo mainnet-01</title><path d="M41.58,10.9A10.29,10.29,0,0,0,27,2.35l-1.29.59L21.25,5.56,16.88,3,15.5,2.35A10.29,10.29,0,0,0,.93,10.9V29.85a2.67,2.67,0,0,0,4,2.31l16.31-9.47,16.31,9.47a2.67,2.67,0,0,0,4-2.31V10.9ZM30.91,13.63a.61.61,0,0,1,0,1.06L21.25,20.3l-9.66-5.61a.61.61,0,0,1,0-1.06L21.25,8Zm-27,16.75a.62.62,0,0,1-.62,0A.61.61,0,0,1,3,29.85V11.06a8.28,8.28,0,0,1,8.2-7.62,8.26,8.26,0,0,1,3.46.77l1.23.58,3.34,2-8.67,5.09a2.65,2.65,0,0,0-1.32,2.31,2.62,2.62,0,0,0,1.33,2.3l8.65,5Zm35.32,0a.62.62,0,0,1-.62,0L23.3,21.5l8.65-5a2.68,2.68,0,0,0,0-4.62l-8.68-5.1,3.34-2,1.24-.58a8.23,8.23,0,0,1,11.66,6.84V29.85A.63.63,0,0,1,39.22,30.38Z"/><path d="M53.13,28.07V7.75h3.26l7.47,16.8H63l7.47-16.8h3.23V28.07H70.28V13h1L64.48,28.07H62.26L55.43,13H56.5V28.07Zm24.62,6.54-.84-2.85a13.73,13.73,0,0,0,2.28-.66,4.55,4.55,0,0,0,1.53-1,4.85,4.85,0,0,0,1-1.56l.72-1.7-.09,1.41L76,13.51h3.83l4.55,11.36h-.84l4.58-11.36h3.63L85.15,28.88a11.73,11.73,0,0,1-1.44,2.57A7.09,7.09,0,0,1,82,33.09a7.21,7.21,0,0,1-2,1A15.44,15.44,0,0,1,77.75,34.61ZM93.8,28.07V17.23q0-.92-.06-1.87t-.14-1.84h3.49l.4,4h-.58a6.31,6.31,0,0,1,1-2.39,4.34,4.34,0,0,1,1.67-1.41,5,5,0,0,1,2.13-.46,4.86,4.86,0,0,1,.84.06,2.52,2.52,0,0,1,.63.14l0,3.17a4,4,0,0,0-1-.29,6.45,6.45,0,0,0-1-.06,4,4,0,0,0-2.1.52,3.31,3.31,0,0,0-1.27,1.44,5.2,5.2,0,0,0-.4,2.1v7.75Zm11.49,0V13.51h3.6V28.07Zm-.2-17.29V7.26h4v3.52Zm13.48,17.58A5.84,5.84,0,0,1,113,24.84a9.41,9.41,0,0,1-.81-4.06,9.21,9.21,0,0,1,.81-4,6,6,0,0,1,2.25-2.59,6.07,6.07,0,0,1,3.34-.92,5.68,5.68,0,0,1,3.23.92,4.25,4.25,0,0,1,1.87,2.42h-.32l.32-3.06h3.46L127,15.33q-.06.92-.06,1.82V28.07h-3.57l0-3h.35a4.25,4.25,0,0,1-1.87,2.39A5.86,5.86,0,0,1,118.57,28.36Zm1-2.77a3.47,3.47,0,0,0,2.74-1.18,5.46,5.46,0,0,0,1-3.63,5.34,5.34,0,0,0-1-3.6,3.76,3.76,0,0,0-5.48,0,5.34,5.34,0,0,0-1,3.6,5.57,5.57,0,0,0,1,3.63A3.5,3.5,0,0,0,119.58,25.59Zm17,2.77a6.36,6.36,0,0,1-3.37-.89A6.16,6.16,0,0,1,131,24.84a9.41,9.41,0,0,1-.81-4.06,9.21,9.21,0,0,1,.81-4,6,6,0,0,1,2.25-2.59,6.21,6.21,0,0,1,3.37-.92,5.77,5.77,0,0,1,3.2.89,4.13,4.13,0,0,1,1.87,2.36h-.37V6.86h3.6V28.07h-3.55V25h.35a4.37,4.37,0,0,1-1.87,2.48A5.82,5.82,0,0,1,136.62,28.36Zm1-2.77a3.47,3.47,0,0,0,2.74-1.18,5.46,5.46,0,0,0,1-3.63,5.34,5.34,0,0,0-1-3.6A3.47,3.47,0,0,0,137.63,16a3.55,3.55,0,0,0-2.77,1.18,5.34,5.34,0,0,0-1,3.6,5.46,5.46,0,0,0,1,3.63A3.55,3.55,0,0,0,137.63,25.59Z"/></svg>